<?xml version="1.0" standalone="no"?>
<svg xmlns="http://www.w3.org/2000/svg" version="1.1" width="246" height="246">
	<!-- Created with https://api.qrserver.com (QR Code API, see goQR.me/api for information) -->
	<title>QR Code</title>
	<desc>https://www.piter.com/product/professionalnyy-benchmark-iskusstvo-izmereniya-proizvoditelnosti</desc>
	<rect style="fill:rgb(255, 255, 255);fill-opacity:1" x="0" y="0" width="246" height="246" />
	<g id="elements">
		<path style="fill:rgb(0, 0, 0)" d="M 12,12 l 6,0 0,6 -6,0 z M 18,12 l 6,0 0,6 -6,0 z M 24,12 l 6,0 0,6 -6,0 z M 30,12 l 6,0 0,6 -6,0 z M 36,12 l 6,0 0,6 -6,0 z M 42,12 l 6,0 0,6 -6,0 z M 48,12 l 6,0 0,6 -6,0 z M 72,12 l 6,0 0,6 -6,0 z M 84,12 l 6,0 0,6 -6,0 z M 96,12 l 6,0 0,6 -6,0 z M 108,12 l 6,0 0,6 -6,0 z M 114,12 l 6,0 0,6 -6,0 z M 120,12 l 6,0 0,6 -6,0 z M 126,12 l 6,0 0,6 -6,0 z M 132,12 l 6,0 0,6 -6,0 z M 150,12 l 6,0 0,6 -6,0 z M 162,12 l 6,0 0,6 -6,0 z M 180,12 l 6,0 0,6 -6,0 z M 192,12 l 6,0 0,6 -6,0 z M 198,12 l 6,0 0,6 -6,0 z M 204,12 l 6,0 0,6 -6,0 z M 210,12 l 6,0 0,6 -6,0 z M 216,12 l 6,0 0,6 -6,0 z M 222,12 l 6,0 0,6 -6,0 z M 228,12 l 6,0 0,6 -6,0 z M 12,18 l 6,0 0,6 -6,0 z M 48,18 l 6,0 0,6 -6,0 z M 60,18 l 6,0 0,6 -6,0 z M 72,18 l 6,0 0,6 -6,0 z M 96,18 l 6,0 0,6 -6,0 z M 102,18 l 6,0 0,6 -6,0 z M 108,18 l 6,0 0,6 -6,0 z M 138,18 l 6,0 0,6 -6,0 z M 162,18 l 6,0 0,6 -6,0 z M 168,18 l 6,0 0,6 -6,0 z M 174,18 l 6,0 0,6 -6,0 z M 192,18 l 6,0 0,6 -6,0 z M 228,18 l 6,0 0,6 -6,0 z M 12,24 l 6,0 0,6 -6,0 z M 24,24 l 6,0 0,6 -6,0 z M 30,24 l 6,0 0,6 -6,0 z M 36,24 l 6,0 0,6 -6,0 z M 48,24 l 6,0 0,6 -6,0 z M 84,24 l 6,0 0,6 -6,0 z M 102,24 l 6,0 0,6 -6,0 z M 126,24 l 6,0 0,6 -6,0 z M 138,24 l 6,0 0,6 -6,0 z M 150,24 l 6,0 0,6 -6,0 z M 156,24 l 6,0 0,6 -6,0 z M 168,24 l 6,0 0,6 -6,0 z M 192,24 l 6,0 0,6 -6,0 z M 204,24 l 6,0 0,6 -6,0 z M 210,24 l 6,0 0,6 -6,0 z M 216,24 l 6,0 0,6 -6,0 z M 228,24 l 6,0 0,6 -6,0 z M 12,30 l 6,0 0,6 -6,0 z M 24,30 l 6,0 0,6 -6,0 z M 30,30 l 6,0 0,6 -6,0 z M 36,30 l 6,0 0,6 -6,0 z M 48,30 l 6,0 0,6 -6,0 z M 60,30 l 6,0 0,6 -6,0 z M 66,30 l 6,0 0,6 -6,0 z M 72,30 l 6,0 0,6 -6,0 z M 84,30 l 6,0 0,6 -6,0 z M 90,30 l 6,0 0,6 -6,0 z M 96,30 l 6,0 0,6 -6,0 z M 114,30 l 6,0 0,6 -6,0 z M 126,30 l 6,0 0,6 -6,0 z M 132,30 l 6,0 0,6 -6,0 z M 144,30 l 6,0 0,6 -6,0 z M 156,30 l 6,0 0,6 -6,0 z M 162,30 l 6,0 0,6 -6,0 z M 168,30 l 6,0 0,6 -6,0 z M 174,30 l 6,0 0,6 -6,0 z M 180,30 l 6,0 0,6 -6,0 z M 192,30 l 6,0 0,6 -6,0 z M 204,30 l 6,0 0,6 -6,0 z M 210,30 l 6,0 0,6 -6,0 z M 216,30 l 6,0 0,6 -6,0 z M 228,30 l 6,0 0,6 -6,0 z M 12,36 l 6,0 0,6 -6,0 z M 24,36 l 6,0 0,6 -6,0 z M 30,36 l 6,0 0,6 -6,0 z M 36,36 l 6,0 0,6 -6,0 z M 48,36 l 6,0 0,6 -6,0 z M 66,36 l 6,0 0,6 -6,0 z M 108,36 l 6,0 0,6 -6,0 z M 120,36 l 6,0 0,6 -6,0 z M 126,36 l 6,0 0,6 -6,0 z M 132,36 l 6,0 0,6 -6,0 z M 150,36 l 6,0 0,6 -6,0 z M 180,36 l 6,0 0,6 -6,0 z M 192,36 l 6,0 0,6 -6,0 z M 204,36 l 6,0 0,6 -6,0 z M 210,36 l 6,0 0,6 -6,0 z M 216,36 l 6,0 0,6 -6,0 z M 228,36 l 6,0 0,6 -6,0 z M 12,42 l 6,0 0,6 -6,0 z M 48,42 l 6,0 0,6 -6,0 z M 60,42 l 6,0 0,6 -6,0 z M 66,42 l 6,0 0,6 -6,0 z M 78,42 l 6,0 0,6 -6,0 z M 84,42 l 6,0 0,6 -6,0 z M 96,42 l 6,0 0,6 -6,0 z M 102,42 l 6,0 0,6 -6,0 z M 132,42 l 6,0 0,6 -6,0 z M 138,42 l 6,0 0,6 -6,0 z M 144,42 l 6,0 0,6 -6,0 z M 156,42 l 6,0 0,6 -6,0 z M 162,42 l 6,0 0,6 -6,0 z M 168,42 l 6,0 0,6 -6,0 z M 174,42 l 6,0 0,6 -6,0 z M 192,42 l 6,0 0,6 -6,0 z M 228,42 l 6,0 0,6 -6,0 z M 12,48 l 6,0 0,6 -6,0 z M 18,48 l 6,0 0,6 -6,0 z M 24,48 l 6,0 0,6 -6,0 z M 30,48 l 6,0 0,6 -6,0 z M 36,48 l 6,0 0,6 -6,0 z M 42,48 l 6,0 0,6 -6,0 z M 48,48 l 6,0 0,6 -6,0 z M 60,48 l 6,0 0,6 -6,0 z M 72,48 l 6,0 0,6 -6,0 z M 84,48 l 6,0 0,6 -6,0 z M 96,48 l 6,0 0,6 -6,0 z M 108,48 l 6,0 0,6 -6,0 z M 120,48 l 6,0 0,6 -6,0 z M 132,48 l 6,0 0,6 -6,0 z M 144,48 l 6,0 0,6 -6,0 z M 156,48 l 6,0 0,6 -6,0 z M 168,48 l 6,0 0,6 -6,0 z M 180,48 l 6,0 0,6 -6,0 z M 192,48 l 6,0 0,6 -6,0 z M 198,48 l 6,0 0,6 -6,0 z M 204,48 l 6,0 0,6 -6,0 z M 210,48 l 6,0 0,6 -6,0 z M 216,48 l 6,0 0,6 -6,0 z M 222,48 l 6,0 0,6 -6,0 z M 228,48 l 6,0 0,6 -6,0 z M 66,54 l 6,0 0,6 -6,0 z M 72,54 l 6,0 0,6 -6,0 z M 78,54 l 6,0 0,6 -6,0 z M 96,54 l 6,0 0,6 -6,0 z M 102,54 l 6,0 0,6 -6,0 z M 108,54 l 6,0 0,6 -6,0 z M 138,54 l 6,0 0,6 -6,0 z M 144,54 l 6,0 0,6 -6,0 z M 150,54 l 6,0 0,6 -6,0 z M 174,54 l 6,0 0,6 -6,0 z M 12,60 l 6,0 0,6 -6,0 z M 18,60 l 6,0 0,6 -6,0 z M 24,60 l 6,0 0,6 -6,0 z M 30,60 l 6,0 0,6 -6,0 z M 36,60 l 6,0 0,6 -6,0 z M 48,60 l 6,0 0,6 -6,0 z M 54,60 l 6,0 0,6 -6,0 z M 60,60 l 6,0 0,6 -6,0 z M 66,60 l 6,0 0,6 -6,0 z M 78,60 l 6,0 0,6 -6,0 z M 90,60 l 6,0 0,6 -6,0 z M 96,60 l 6,0 0,6 -6,0 z M 102,60 l 6,0 0,6 -6,0 z M 114,60 l 6,0 0,6 -6,0 z M 126,60 l 6,0 0,6 -6,0 z M 144,60 l 6,0 0,6 -6,0 z M 150,60 l 6,0 0,6 -6,0 z M 156,60 l 6,0 0,6 -6,0 z M 162,60 l 6,0 0,6 -6,0 z M 168,60 l 6,0 0,6 -6,0 z M 174,60 l 6,0 0,6 -6,0 z M 180,60 l 6,0 0,6 -6,0 z M 186,60 l 6,0 0,6 -6,0 z M 198,60 l 6,0 0,6 -6,0 z M 210,60 l 6,0 0,6 -6,0 z M 222,60 l 6,0 0,6 -6,0 z M 72,66 l 6,0 0,6 -6,0 z M 84,66 l 6,0 0,6 -6,0 z M 90,66 l 6,0 0,6 -6,0 z M 108,66 l 6,0 0,6 -6,0 z M 126,66 l 6,0 0,6 -6,0 z M 132,66 l 6,0 0,6 -6,0 z M 138,66 l 6,0 0,6 -6,0 z M 150,66 l 6,0 0,6 -6,0 z M 180,66 l 6,0 0,6 -6,0 z M 198,66 l 6,0 0,6 -6,0 z M 210,66 l 6,0 0,6 -6,0 z M 216,66 l 6,0 0,6 -6,0 z M 222,66 l 6,0 0,6 -6,0 z M 24,72 l 6,0 0,6 -6,0 z M 30,72 l 6,0 0,6 -6,0 z M 48,72 l 6,0 0,6 -6,0 z M 54,72 l 6,0 0,6 -6,0 z M 60,72 l 6,0 0,6 -6,0 z M 96,72 l 6,0 0,6 -6,0 z M 102,72 l 6,0 0,6 -6,0 z M 108,72 l 6,0 0,6 -6,0 z M 114,72 l 6,0 0,6 -6,0 z M 120,72 l 6,0 0,6 -6,0 z M 132,72 l 6,0 0,6 -6,0 z M 138,72 l 6,0 0,6 -6,0 z M 168,72 l 6,0 0,6 -6,0 z M 174,72 l 6,0 0,6 -6,0 z M 180,72 l 6,0 0,6 -6,0 z M 192,72 l 6,0 0,6 -6,0 z M 204,72 l 6,0 0,6 -6,0 z M 210,72 l 6,0 0,6 -6,0 z M 216,72 l 6,0 0,6 -6,0 z M 228,72 l 6,0 0,6 -6,0 z M 12,78 l 6,0 0,6 -6,0 z M 24,78 l 6,0 0,6 -6,0 z M 30,78 l 6,0 0,6 -6,0 z M 36,78 l 6,0 0,6 -6,0 z M 54,78 l 6,0 0,6 -6,0 z M 60,78 l 6,0 0,6 -6,0 z M 84,78 l 6,0 0,6 -6,0 z M 108,78 l 6,0 0,6 -6,0 z M 120,78 l 6,0 0,6 -6,0 z M 132,78 l 6,0 0,6 -6,0 z M 138,78 l 6,0 0,6 -6,0 z M 144,78 l 6,0 0,6 -6,0 z M 168,78 l 6,0 0,6 -6,0 z M 180,78 l 6,0 0,6 -6,0 z M 186,78 l 6,0 0,6 -6,0 z M 198,78 l 6,0 0,6 -6,0 z M 204,78 l 6,0 0,6 -6,0 z M 210,78 l 6,0 0,6 -6,0 z M 222,78 l 6,0 0,6 -6,0 z M 12,84 l 6,0 0,6 -6,0 z M 18,84 l 6,0 0,6 -6,0 z M 30,84 l 6,0 0,6 -6,0 z M 42,84 l 6,0 0,6 -6,0 z M 48,84 l 6,0 0,6 -6,0 z M 54,84 l 6,0 0,6 -6,0 z M 60,84 l 6,0 0,6 -6,0 z M 66,84 l 6,0 0,6 -6,0 z M 84,84 l 6,0 0,6 -6,0 z M 90,84 l 6,0 0,6 -6,0 z M 96,84 l 6,0 0,6 -6,0 z M 114,84 l 6,0 0,6 -6,0 z M 126,84 l 6,0 0,6 -6,0 z M 144,84 l 6,0 0,6 -6,0 z M 156,84 l 6,0 0,6 -6,0 z M 162,84 l 6,0 0,6 -6,0 z M 168,84 l 6,0 0,6 -6,0 z M 186,84 l 6,0 0,6 -6,0 z M 192,84 l 6,0 0,6 -6,0 z M 204,84 l 6,0 0,6 -6,0 z M 210,84 l 6,0 0,6 -6,0 z M 216,84 l 6,0 0,6 -6,0 z M 228,84 l 6,0 0,6 -6,0 z M 12,90 l 6,0 0,6 -6,0 z M 18,90 l 6,0 0,6 -6,0 z M 24,90 l 6,0 0,6 -6,0 z M 54,90 l 6,0 0,6 -6,0 z M 66,90 l 6,0 0,6 -6,0 z M 72,90 l 6,0 0,6 -6,0 z M 90,90 l 6,0 0,6 -6,0 z M 108,90 l 6,0 0,6 -6,0 z M 120,90 l 6,0 0,6 -6,0 z M 126,90 l 6,0 0,6 -6,0 z M 138,90 l 6,0 0,6 -6,0 z M 144,90 l 6,0 0,6 -6,0 z M 150,90 l 6,0 0,6 -6,0 z M 168,90 l 6,0 0,6 -6,0 z M 216,90 l 6,0 0,6 -6,0 z M 222,90 l 6,0 0,6 -6,0 z M 36,96 l 6,0 0,6 -6,0 z M 48,96 l 6,0 0,6 -6,0 z M 54,96 l 6,0 0,6 -6,0 z M 60,96 l 6,0 0,6 -6,0 z M 66,96 l 6,0 0,6 -6,0 z M 78,96 l 6,0 0,6 -6,0 z M 84,96 l 6,0 0,6 -6,0 z M 90,96 l 6,0 0,6 -6,0 z M 96,96 l 6,0 0,6 -6,0 z M 102,96 l 6,0 0,6 -6,0 z M 132,96 l 6,0 0,6 -6,0 z M 156,96 l 6,0 0,6 -6,0 z M 162,96 l 6,0 0,6 -6,0 z M 174,96 l 6,0 0,6 -6,0 z M 186,96 l 6,0 0,6 -6,0 z M 204,96 l 6,0 0,6 -6,0 z M 216,96 l 6,0 0,6 -6,0 z M 222,96 l 6,0 0,6 -6,0 z M 228,96 l 6,0 0,6 -6,0 z M 12,102 l 6,0 0,6 -6,0 z M 24,102 l 6,0 0,6 -6,0 z M 36,102 l 6,0 0,6 -6,0 z M 42,102 l 6,0 0,6 -6,0 z M 54,102 l 6,0 0,6 -6,0 z M 60,102 l 6,0 0,6 -6,0 z M 72,102 l 6,0 0,6 -6,0 z M 78,102 l 6,0 0,6 -6,0 z M 108,102 l 6,0 0,6 -6,0 z M 126,102 l 6,0 0,6 -6,0 z M 132,102 l 6,0 0,6 -6,0 z M 138,102 l 6,0 0,6 -6,0 z M 150,102 l 6,0 0,6 -6,0 z M 156,102 l 6,0 0,6 -6,0 z M 168,102 l 6,0 0,6 -6,0 z M 174,102 l 6,0 0,6 -6,0 z M 180,102 l 6,0 0,6 -6,0 z M 186,102 l 6,0 0,6 -6,0 z M 210,102 l 6,0 0,6 -6,0 z M 228,102 l 6,0 0,6 -6,0 z M 12,108 l 6,0 0,6 -6,0 z M 24,108 l 6,0 0,6 -6,0 z M 36,108 l 6,0 0,6 -6,0 z M 48,108 l 6,0 0,6 -6,0 z M 54,108 l 6,0 0,6 -6,0 z M 66,108 l 6,0 0,6 -6,0 z M 78,108 l 6,0 0,6 -6,0 z M 90,108 l 6,0 0,6 -6,0 z M 96,108 l 6,0 0,6 -6,0 z M 102,108 l 6,0 0,6 -6,0 z M 108,108 l 6,0 0,6 -6,0 z M 114,108 l 6,0 0,6 -6,0 z M 126,108 l 6,0 0,6 -6,0 z M 144,108 l 6,0 0,6 -6,0 z M 156,108 l 6,0 0,6 -6,0 z M 162,108 l 6,0 0,6 -6,0 z M 168,108 l 6,0 0,6 -6,0 z M 174,108 l 6,0 0,6 -6,0 z M 180,108 l 6,0 0,6 -6,0 z M 186,108 l 6,0 0,6 -6,0 z M 192,108 l 6,0 0,6 -6,0 z M 198,108 l 6,0 0,6 -6,0 z M 204,108 l 6,0 0,6 -6,0 z M 210,108 l 6,0 0,6 -6,0 z M 216,108 l 6,0 0,6 -6,0 z M 228,108 l 6,0 0,6 -6,0 z M 24,114 l 6,0 0,6 -6,0 z M 30,114 l 6,0 0,6 -6,0 z M 36,114 l 6,0 0,6 -6,0 z M 42,114 l 6,0 0,6 -6,0 z M 84,114 l 6,0 0,6 -6,0 z M 90,114 l 6,0 0,6 -6,0 z M 108,114 l 6,0 0,6 -6,0 z M 114,114 l 6,0 0,6 -6,0 z M 120,114 l 6,0 0,6 -6,0 z M 126,114 l 6,0 0,6 -6,0 z M 132,114 l 6,0 0,6 -6,0 z M 150,114 l 6,0 0,6 -6,0 z M 168,114 l 6,0 0,6 -6,0 z M 180,114 l 6,0 0,6 -6,0 z M 198,114 l 6,0 0,6 -6,0 z M 216,114 l 6,0 0,6 -6,0 z M 222,114 l 6,0 0,6 -6,0 z M 12,120 l 6,0 0,6 -6,0 z M 24,120 l 6,0 0,6 -6,0 z M 30,120 l 6,0 0,6 -6,0 z M 42,120 l 6,0 0,6 -6,0 z M 48,120 l 6,0 0,6 -6,0 z M 54,120 l 6,0 0,6 -6,0 z M 60,120 l 6,0 0,6 -6,0 z M 72,120 l 6,0 0,6 -6,0 z M 90,120 l 6,0 0,6 -6,0 z M 96,120 l 6,0 0,6 -6,0 z M 102,120 l 6,0 0,6 -6,0 z M 114,120 l 6,0 0,6 -6,0 z M 162,120 l 6,0 0,6 -6,0 z M 174,120 l 6,0 0,6 -6,0 z M 180,120 l 6,0 0,6 -6,0 z M 186,120 l 6,0 0,6 -6,0 z M 198,120 l 6,0 0,6 -6,0 z M 216,120 l 6,0 0,6 -6,0 z M 222,120 l 6,0 0,6 -6,0 z M 228,120 l 6,0 0,6 -6,0 z M 30,126 l 6,0 0,6 -6,0 z M 36,126 l 6,0 0,6 -6,0 z M 42,126 l 6,0 0,6 -6,0 z M 60,126 l 6,0 0,6 -6,0 z M 72,126 l 6,0 0,6 -6,0 z M 84,126 l 6,0 0,6 -6,0 z M 96,126 l 6,0 0,6 -6,0 z M 120,126 l 6,0 0,6 -6,0 z M 126,126 l 6,0 0,6 -6,0 z M 132,126 l 6,0 0,6 -6,0 z M 138,126 l 6,0 0,6 -6,0 z M 144,126 l 6,0 0,6 -6,0 z M 168,126 l 6,0 0,6 -6,0 z M 186,126 l 6,0 0,6 -6,0 z M 192,126 l 6,0 0,6 -6,0 z M 198,126 l 6,0 0,6 -6,0 z M 228,126 l 6,0 0,6 -6,0 z M 30,132 l 6,0 0,6 -6,0 z M 42,132 l 6,0 0,6 -6,0 z M 48,132 l 6,0 0,6 -6,0 z M 54,132 l 6,0 0,6 -6,0 z M 66,132 l 6,0 0,6 -6,0 z M 72,132 l 6,0 0,6 -6,0 z M 84,132 l 6,0 0,6 -6,0 z M 90,132 l 6,0 0,6 -6,0 z M 96,132 l 6,0 0,6 -6,0 z M 108,132 l 6,0 0,6 -6,0 z M 114,132 l 6,0 0,6 -6,0 z M 132,132 l 6,0 0,6 -6,0 z M 150,132 l 6,0 0,6 -6,0 z M 156,132 l 6,0 0,6 -6,0 z M 162,132 l 6,0 0,6 -6,0 z M 168,132 l 6,0 0,6 -6,0 z M 174,132 l 6,0 0,6 -6,0 z M 192,132 l 6,0 0,6 -6,0 z M 204,132 l 6,0 0,6 -6,0 z M 216,132 l 6,0 0,6 -6,0 z M 222,132 l 6,0 0,6 -6,0 z M 228,132 l 6,0 0,6 -6,0 z M 36,138 l 6,0 0,6 -6,0 z M 42,138 l 6,0 0,6 -6,0 z M 54,138 l 6,0 0,6 -6,0 z M 60,138 l 6,0 0,6 -6,0 z M 66,138 l 6,0 0,6 -6,0 z M 96,138 l 6,0 0,6 -6,0 z M 108,138 l 6,0 0,6 -6,0 z M 114,138 l 6,0 0,6 -6,0 z M 120,138 l 6,0 0,6 -6,0 z M 126,138 l 6,0 0,6 -6,0 z M 132,138 l 6,0 0,6 -6,0 z M 150,138 l 6,0 0,6 -6,0 z M 156,138 l 6,0 0,6 -6,0 z M 162,138 l 6,0 0,6 -6,0 z M 180,138 l 6,0 0,6 -6,0 z M 198,138 l 6,0 0,6 -6,0 z M 222,138 l 6,0 0,6 -6,0 z M 12,144 l 6,0 0,6 -6,0 z M 30,144 l 6,0 0,6 -6,0 z M 48,144 l 6,0 0,6 -6,0 z M 66,144 l 6,0 0,6 -6,0 z M 78,144 l 6,0 0,6 -6,0 z M 84,144 l 6,0 0,6 -6,0 z M 90,144 l 6,0 0,6 -6,0 z M 102,144 l 6,0 0,6 -6,0 z M 108,144 l 6,0 0,6 -6,0 z M 120,144 l 6,0 0,6 -6,0 z M 138,144 l 6,0 0,6 -6,0 z M 144,144 l 6,0 0,6 -6,0 z M 174,144 l 6,0 0,6 -6,0 z M 180,144 l 6,0 0,6 -6,0 z M 186,144 l 6,0 0,6 -6,0 z M 216,144 l 6,0 0,6 -6,0 z M 222,144 l 6,0 0,6 -6,0 z M 228,144 l 6,0 0,6 -6,0 z M 12,150 l 6,0 0,6 -6,0 z M 30,150 l 6,0 0,6 -6,0 z M 54,150 l 6,0 0,6 -6,0 z M 60,150 l 6,0 0,6 -6,0 z M 72,150 l 6,0 0,6 -6,0 z M 78,150 l 6,0 0,6 -6,0 z M 96,150 l 6,0 0,6 -6,0 z M 102,150 l 6,0 0,6 -6,0 z M 132,150 l 6,0 0,6 -6,0 z M 138,150 l 6,0 0,6 -6,0 z M 144,150 l 6,0 0,6 -6,0 z M 156,150 l 6,0 0,6 -6,0 z M 168,150 l 6,0 0,6 -6,0 z M 174,150 l 6,0 0,6 -6,0 z M 180,150 l 6,0 0,6 -6,0 z M 186,150 l 6,0 0,6 -6,0 z M 198,150 l 6,0 0,6 -6,0 z M 228,150 l 6,0 0,6 -6,0 z M 12,156 l 6,0 0,6 -6,0 z M 18,156 l 6,0 0,6 -6,0 z M 24,156 l 6,0 0,6 -6,0 z M 42,156 l 6,0 0,6 -6,0 z M 48,156 l 6,0 0,6 -6,0 z M 54,156 l 6,0 0,6 -6,0 z M 60,156 l 6,0 0,6 -6,0 z M 78,156 l 6,0 0,6 -6,0 z M 90,156 l 6,0 0,6 -6,0 z M 96,156 l 6,0 0,6 -6,0 z M 114,156 l 6,0 0,6 -6,0 z M 132,156 l 6,0 0,6 -6,0 z M 144,156 l 6,0 0,6 -6,0 z M 150,156 l 6,0 0,6 -6,0 z M 162,156 l 6,0 0,6 -6,0 z M 168,156 l 6,0 0,6 -6,0 z M 174,156 l 6,0 0,6 -6,0 z M 180,156 l 6,0 0,6 -6,0 z M 186,156 l 6,0 0,6 -6,0 z M 192,156 l 6,0 0,6 -6,0 z M 198,156 l 6,0 0,6 -6,0 z M 204,156 l 6,0 0,6 -6,0 z M 216,156 l 6,0 0,6 -6,0 z M 222,156 l 6,0 0,6 -6,0 z M 228,156 l 6,0 0,6 -6,0 z M 12,162 l 6,0 0,6 -6,0 z M 18,162 l 6,0 0,6 -6,0 z M 24,162 l 6,0 0,6 -6,0 z M 60,162 l 6,0 0,6 -6,0 z M 66,162 l 6,0 0,6 -6,0 z M 84,162 l 6,0 0,6 -6,0 z M 96,162 l 6,0 0,6 -6,0 z M 108,162 l 6,0 0,6 -6,0 z M 114,162 l 6,0 0,6 -6,0 z M 126,162 l 6,0 0,6 -6,0 z M 132,162 l 6,0 0,6 -6,0 z M 150,162 l 6,0 0,6 -6,0 z M 162,162 l 6,0 0,6 -6,0 z M 180,162 l 6,0 0,6 -6,0 z M 186,162 l 6,0 0,6 -6,0 z M 198,162 l 6,0 0,6 -6,0 z M 222,162 l 6,0 0,6 -6,0 z M 12,168 l 6,0 0,6 -6,0 z M 24,168 l 6,0 0,6 -6,0 z M 36,168 l 6,0 0,6 -6,0 z M 42,168 l 6,0 0,6 -6,0 z M 48,168 l 6,0 0,6 -6,0 z M 66,168 l 6,0 0,6 -6,0 z M 96,168 l 6,0 0,6 -6,0 z M 102,168 l 6,0 0,6 -6,0 z M 108,168 l 6,0 0,6 -6,0 z M 120,168 l 6,0 0,6 -6,0 z M 132,168 l 6,0 0,6 -6,0 z M 138,168 l 6,0 0,6 -6,0 z M 162,168 l 6,0 0,6 -6,0 z M 168,168 l 6,0 0,6 -6,0 z M 174,168 l 6,0 0,6 -6,0 z M 192,168 l 6,0 0,6 -6,0 z M 198,168 l 6,0 0,6 -6,0 z M 216,168 l 6,0 0,6 -6,0 z M 222,168 l 6,0 0,6 -6,0 z M 228,168 l 6,0 0,6 -6,0 z M 12,174 l 6,0 0,6 -6,0 z M 24,174 l 6,0 0,6 -6,0 z M 30,174 l 6,0 0,6 -6,0 z M 42,174 l 6,0 0,6 -6,0 z M 60,174 l 6,0 0,6 -6,0 z M 72,174 l 6,0 0,6 -6,0 z M 84,174 l 6,0 0,6 -6,0 z M 108,174 l 6,0 0,6 -6,0 z M 126,174 l 6,0 0,6 -6,0 z M 138,174 l 6,0 0,6 -6,0 z M 144,174 l 6,0 0,6 -6,0 z M 156,174 l 6,0 0,6 -6,0 z M 168,174 l 6,0 0,6 -6,0 z M 174,174 l 6,0 0,6 -6,0 z M 180,174 l 6,0 0,6 -6,0 z M 192,174 l 6,0 0,6 -6,0 z M 204,174 l 6,0 0,6 -6,0 z M 228,174 l 6,0 0,6 -6,0 z M 12,180 l 6,0 0,6 -6,0 z M 36,180 l 6,0 0,6 -6,0 z M 42,180 l 6,0 0,6 -6,0 z M 48,180 l 6,0 0,6 -6,0 z M 54,180 l 6,0 0,6 -6,0 z M 60,180 l 6,0 0,6 -6,0 z M 66,180 l 6,0 0,6 -6,0 z M 72,180 l 6,0 0,6 -6,0 z M 84,180 l 6,0 0,6 -6,0 z M 90,180 l 6,0 0,6 -6,0 z M 96,180 l 6,0 0,6 -6,0 z M 114,180 l 6,0 0,6 -6,0 z M 132,180 l 6,0 0,6 -6,0 z M 144,180 l 6,0 0,6 -6,0 z M 150,180 l 6,0 0,6 -6,0 z M 162,180 l 6,0 0,6 -6,0 z M 168,180 l 6,0 0,6 -6,0 z M 174,180 l 6,0 0,6 -6,0 z M 180,180 l 6,0 0,6 -6,0 z M 186,180 l 6,0 0,6 -6,0 z M 192,180 l 6,0 0,6 -6,0 z M 198,180 l 6,0 0,6 -6,0 z M 204,180 l 6,0 0,6 -6,0 z M 216,180 l 6,0 0,6 -6,0 z M 60,186 l 6,0 0,6 -6,0 z M 90,186 l 6,0 0,6 -6,0 z M 108,186 l 6,0 0,6 -6,0 z M 120,186 l 6,0 0,6 -6,0 z M 126,186 l 6,0 0,6 -6,0 z M 132,186 l 6,0 0,6 -6,0 z M 138,186 l 6,0 0,6 -6,0 z M 144,186 l 6,0 0,6 -6,0 z M 150,186 l 6,0 0,6 -6,0 z M 162,186 l 6,0 0,6 -6,0 z M 174,186 l 6,0 0,6 -6,0 z M 180,186 l 6,0 0,6 -6,0 z M 204,186 l 6,0 0,6 -6,0 z M 12,192 l 6,0 0,6 -6,0 z M 18,192 l 6,0 0,6 -6,0 z M 24,192 l 6,0 0,6 -6,0 z M 30,192 l 6,0 0,6 -6,0 z M 36,192 l 6,0 0,6 -6,0 z M 42,192 l 6,0 0,6 -6,0 z M 48,192 l 6,0 0,6 -6,0 z M 60,192 l 6,0 0,6 -6,0 z M 66,192 l 6,0 0,6 -6,0 z M 72,192 l 6,0 0,6 -6,0 z M 78,192 l 6,0 0,6 -6,0 z M 84,192 l 6,0 0,6 -6,0 z M 102,192 l 6,0 0,6 -6,0 z M 120,192 l 6,0 0,6 -6,0 z M 132,192 l 6,0 0,6 -6,0 z M 156,192 l 6,0 0,6 -6,0 z M 162,192 l 6,0 0,6 -6,0 z M 168,192 l 6,0 0,6 -6,0 z M 180,192 l 6,0 0,6 -6,0 z M 192,192 l 6,0 0,6 -6,0 z M 204,192 l 6,0 0,6 -6,0 z M 216,192 l 6,0 0,6 -6,0 z M 222,192 l 6,0 0,6 -6,0 z M 228,192 l 6,0 0,6 -6,0 z M 12,198 l 6,0 0,6 -6,0 z M 48,198 l 6,0 0,6 -6,0 z M 66,198 l 6,0 0,6 -6,0 z M 78,198 l 6,0 0,6 -6,0 z M 96,198 l 6,0 0,6 -6,0 z M 126,198 l 6,0 0,6 -6,0 z M 138,198 l 6,0 0,6 -6,0 z M 144,198 l 6,0 0,6 -6,0 z M 150,198 l 6,0 0,6 -6,0 z M 180,198 l 6,0 0,6 -6,0 z M 204,198 l 6,0 0,6 -6,0 z M 210,198 l 6,0 0,6 -6,0 z M 12,204 l 6,0 0,6 -6,0 z M 24,204 l 6,0 0,6 -6,0 z M 30,204 l 6,0 0,6 -6,0 z M 36,204 l 6,0 0,6 -6,0 z M 48,204 l 6,0 0,6 -6,0 z M 60,204 l 6,0 0,6 -6,0 z M 66,204 l 6,0 0,6 -6,0 z M 72,204 l 6,0 0,6 -6,0 z M 78,204 l 6,0 0,6 -6,0 z M 102,204 l 6,0 0,6 -6,0 z M 108,204 l 6,0 0,6 -6,0 z M 114,204 l 6,0 0,6 -6,0 z M 120,204 l 6,0 0,6 -6,0 z M 132,204 l 6,0 0,6 -6,0 z M 144,204 l 6,0 0,6 -6,0 z M 150,204 l 6,0 0,6 -6,0 z M 156,204 l 6,0 0,6 -6,0 z M 162,204 l 6,0 0,6 -6,0 z M 168,204 l 6,0 0,6 -6,0 z M 174,204 l 6,0 0,6 -6,0 z M 180,204 l 6,0 0,6 -6,0 z M 186,204 l 6,0 0,6 -6,0 z M 192,204 l 6,0 0,6 -6,0 z M 198,204 l 6,0 0,6 -6,0 z M 204,204 l 6,0 0,6 -6,0 z M 210,204 l 6,0 0,6 -6,0 z M 216,204 l 6,0 0,6 -6,0 z M 222,204 l 6,0 0,6 -6,0 z M 12,210 l 6,0 0,6 -6,0 z M 24,210 l 6,0 0,6 -6,0 z M 30,210 l 6,0 0,6 -6,0 z M 36,210 l 6,0 0,6 -6,0 z M 48,210 l 6,0 0,6 -6,0 z M 60,210 l 6,0 0,6 -6,0 z M 66,210 l 6,0 0,6 -6,0 z M 84,210 l 6,0 0,6 -6,0 z M 90,210 l 6,0 0,6 -6,0 z M 108,210 l 6,0 0,6 -6,0 z M 114,210 l 6,0 0,6 -6,0 z M 120,210 l 6,0 0,6 -6,0 z M 126,210 l 6,0 0,6 -6,0 z M 132,210 l 6,0 0,6 -6,0 z M 150,210 l 6,0 0,6 -6,0 z M 180,210 l 6,0 0,6 -6,0 z M 186,210 l 6,0 0,6 -6,0 z M 192,210 l 6,0 0,6 -6,0 z M 204,210 l 6,0 0,6 -6,0 z M 216,210 l 6,0 0,6 -6,0 z M 222,210 l 6,0 0,6 -6,0 z M 228,210 l 6,0 0,6 -6,0 z M 12,216 l 6,0 0,6 -6,0 z M 24,216 l 6,0 0,6 -6,0 z M 30,216 l 6,0 0,6 -6,0 z M 36,216 l 6,0 0,6 -6,0 z M 48,216 l 6,0 0,6 -6,0 z M 60,216 l 6,0 0,6 -6,0 z M 66,216 l 6,0 0,6 -6,0 z M 72,216 l 6,0 0,6 -6,0 z M 90,216 l 6,0 0,6 -6,0 z M 96,216 l 6,0 0,6 -6,0 z M 102,216 l 6,0 0,6 -6,0 z M 132,216 l 6,0 0,6 -6,0 z M 156,216 l 6,0 0,6 -6,0 z M 180,216 l 6,0 0,6 -6,0 z M 186,216 l 6,0 0,6 -6,0 z M 198,216 l 6,0 0,6 -6,0 z M 210,216 l 6,0 0,6 -6,0 z M 216,216 l 6,0 0,6 -6,0 z M 222,216 l 6,0 0,6 -6,0 z M 228,216 l 6,0 0,6 -6,0 z M 12,222 l 6,0 0,6 -6,0 z M 48,222 l 6,0 0,6 -6,0 z M 60,222 l 6,0 0,6 -6,0 z M 84,222 l 6,0 0,6 -6,0 z M 90,222 l 6,0 0,6 -6,0 z M 102,222 l 6,0 0,6 -6,0 z M 132,222 l 6,0 0,6 -6,0 z M 138,222 l 6,0 0,6 -6,0 z M 144,222 l 6,0 0,6 -6,0 z M 168,222 l 6,0 0,6 -6,0 z M 174,222 l 6,0 0,6 -6,0 z M 180,222 l 6,0 0,6 -6,0 z M 192,222 l 6,0 0,6 -6,0 z M 228,222 l 6,0 0,6 -6,0 z M 12,228 l 6,0 0,6 -6,0 z M 18,228 l 6,0 0,6 -6,0 z M 24,228 l 6,0 0,6 -6,0 z M 30,228 l 6,0 0,6 -6,0 z M 36,228 l 6,0 0,6 -6,0 z M 42,228 l 6,0 0,6 -6,0 z M 48,228 l 6,0 0,6 -6,0 z M 60,228 l 6,0 0,6 -6,0 z M 72,228 l 6,0 0,6 -6,0 z M 84,228 l 6,0 0,6 -6,0 z M 96,228 l 6,0 0,6 -6,0 z M 102,228 l 6,0 0,6 -6,0 z M 108,228 l 6,0 0,6 -6,0 z M 114,228 l 6,0 0,6 -6,0 z M 132,228 l 6,0 0,6 -6,0 z M 144,228 l 6,0 0,6 -6,0 z M 150,228 l 6,0 0,6 -6,0 z M 156,228 l 6,0 0,6 -6,0 z M 162,228 l 6,0 0,6 -6,0 z M 168,228 l 6,0 0,6 -6,0 z M 216,228 l 6,0 0,6 -6,0 z M 222,228 l 6,0 0,6 -6,0 z M 228,228 l 6,0 0,6 -6,0 z " />
	</g>
</svg>
